<?xml version="1.0" encoding="UTF-8" standalone="no"?>
<!DOCTYPE svg PUBLIC "-//W3C//DTD SVG 1.1//EN"
 "http://www.w3.org/Graphics/SVG/1.1/DTD/svg11.dtd">
<!-- Generated by graphviz version 12.1.2 (20240928.0832)
 -->
<!-- Title: url&#45;shortener Pages: 1 -->
<svg width="337pt" height="167pt"
 viewBox="0.00 0.00 336.51 166.80" xmlns="http://www.w3.org/2000/svg" xmlns:xlink="http://www.w3.org/1999/xlink">
<g id="graph0" class="graph" transform="scale(1 1) rotate(0) translate(4 162.8)">
<title>url&#45;shortener</title>
<polygon fill="white" stroke="none" points="-4,4 -4,-162.8 332.51,-162.8 332.51,4 -4,4"/>
<!-- url&#45;shortener -->
<g id="node1" class="node">
<title>url&#45;shortener</title>
<polygon fill="#efefef" stroke="none" points="46.2,-77 46.2,-112.6 282.31,-112.6 282.31,-77 46.2,-77"/>
<polygon fill="none" stroke="black" points="46.2,-77 46.2,-112.6 282.31,-112.6 282.31,-77 46.2,-77"/>
<text text-anchor="start" x="53.2" y="-90.4" font-family="Arial Bold" font-size="18.00">url&#45;shortener</text>
<text text-anchor="start" x="146.16" y="-90.4" font-family="Arial" font-size="14.00">    </text>
<text text-anchor="start" x="177.28" y="-90.4" font-family="Arial" font-size="14.00" fill="#666666">[BASIC TABLE]</text>
<polygon fill="none" stroke="black" points="46.2,-46.2 46.2,-77 282.31,-77 282.31,-46.2 46.2,-46.2"/>
<text text-anchor="start" x="53.2" y="-58.4" font-family="Arial" font-size="14.00">code </text>
<text text-anchor="start" x="87.45" y="-58.4" font-family="Arial" font-size="14.00" fill="#666666">[S]</text>
<polygon fill="none" stroke="black" stroke-width="3" points="44.7,-44.7 44.7,-114.1 283.81,-114.1 283.81,-44.7 44.7,-44.7"/>
</g>
</g>
</svg>
