<?xml version="1.0" encoding="UTF-8" standalone="no"?>
<!DOCTYPE svg PUBLIC "-//W3C//DTD SVG 1.1//EN"
 "http://www.w3.org/Graphics/SVG/1.1/DTD/svg11.dtd">
<!-- Generated by graphviz version 12.1.2 (20240928.0832)
 -->
<!-- Title: Amazon DynamoDB (ap&#45;northeast&#45;1) Pages: 1 -->
<svg width="710pt" height="192pt"
 viewBox="0.00 0.00 709.51 191.60" xmlns="http://www.w3.org/2000/svg" xmlns:xlink="http://www.w3.org/1999/xlink">
<g id="graph0" class="graph" transform="scale(1 1) rotate(0) translate(4 187.6)">
<title>Amazon DynamoDB (ap&#45;northeast&#45;1)</title>
<polygon fill="white" stroke="none" points="-4,4 -4,-187.6 705.51,-187.6 705.51,4 -4,4"/>
<!-- url&#45;shortener -->
<g id="node1" class="node">
<title>url&#45;shortener</title>
<polygon fill="#efefef" stroke="none" points="43.2,-89.4 43.2,-125 279.31,-125 279.31,-89.4 43.2,-89.4"/>
<polygon fill="none" stroke="black" points="43.2,-89.4 43.2,-125 279.31,-125 279.31,-89.4 43.2,-89.4"/>
<text text-anchor="start" x="50.2" y="-102.8" font-family="Arial Bold" font-size="18.00">url&#45;shortener</text>
<text text-anchor="start" x="143.16" y="-102.8" font-family="Arial" font-size="14.00">    </text>
<text text-anchor="start" x="174.28" y="-102.8" font-family="Arial" font-size="14.00" fill="#666666">[BASIC TABLE]</text>
<polygon fill="none" stroke="black" points="43.2,-58.6 43.2,-89.4 279.31,-89.4 279.31,-58.6 43.2,-58.6"/>
<text text-anchor="start" x="50.2" y="-70.8" font-family="Arial" font-size="14.00">code </text>
<text text-anchor="start" x="84.45" y="-70.8" font-family="Arial" font-size="14.00" fill="#666666">[S]</text>
</g>
<!-- url&#45;shortener&#45;stats -->
<g id="node2" class="node">
<title>url&#45;shortener&#45;stats</title>
<polygon fill="#efefef" stroke="none" points="384.2,-104.8 384.2,-140.4 658.31,-140.4 658.31,-104.8 384.2,-104.8"/>
<polygon fill="none" stroke="black" points="384.2,-104.8 384.2,-140.4 658.31,-140.4 658.31,-104.8 384.2,-104.8"/>
<text text-anchor="start" x="391.2" y="-118.2" font-family="Arial Bold" font-size="18.00">url&#45;shortener&#45;stats</text>
<text text-anchor="start" x="522.16" y="-118.2" font-family="Arial" font-size="14.00">    </text>
<text text-anchor="start" x="553.28" y="-118.2" font-family="Arial" font-size="14.00" fill="#666666">[BASIC TABLE]</text>
<polygon fill="none" stroke="black" points="384.2,-74 384.2,-104.8 658.31,-104.8 658.31,-74 384.2,-74"/>
<text text-anchor="start" x="391.2" y="-86.2" font-family="Arial" font-size="14.00">code </text>
<text text-anchor="start" x="425.45" y="-86.2" font-family="Arial" font-size="14.00" fill="#666666">[S]</text>
<polygon fill="none" stroke="black" points="384.2,-43.2 384.2,-74 658.31,-74 658.31,-43.2 384.2,-43.2"/>
<text text-anchor="start" x="391.2" y="-55.4" font-family="Arial" font-size="14.00">date </text>
<text text-anchor="start" x="422.34" y="-55.4" font-family="Arial" font-size="14.00" fill="#666666">[S]</text>
</g>
</g>
</svg>
