<?xml version="1.0" encoding="UTF-8" standalone="no"?>
<!DOCTYPE svg PUBLIC "-//W3C//DTD SVG 1.1//EN"
 "http://www.w3.org/Graphics/SVG/1.1/DTD/svg11.dtd">
<!-- Generated by graphviz version 12.1.2 (20240928.0832)
 -->
<!-- Title: url&#45;shortener&#45;stats Pages: 1 -->
<svg width="375pt" height="198pt"
 viewBox="0.00 0.00 374.51 197.60" xmlns="http://www.w3.org/2000/svg" xmlns:xlink="http://www.w3.org/1999/xlink">
<g id="graph0" class="graph" transform="scale(1 1) rotate(0) translate(4 193.6)">
<title>url&#45;shortener&#45;stats</title>
<polygon fill="white" stroke="none" points="-4,4 -4,-193.6 370.51,-193.6 370.51,4 -4,4"/>
<!-- url&#45;shortener&#45;stats -->
<g id="node1" class="node">
<title>url&#45;shortener&#45;stats</title>
<polygon fill="#efefef" stroke="none" points="46.2,-107.8 46.2,-143.4 320.31,-143.4 320.31,-107.8 46.2,-107.8"/>
<polygon fill="none" stroke="black" points="46.2,-107.8 46.2,-143.4 320.31,-143.4 320.31,-107.8 46.2,-107.8"/>
<text text-anchor="start" x="53.2" y="-121.2" font-family="Arial Bold" font-size="18.00">url&#45;shortener&#45;stats</text>
<text text-anchor="start" x="184.16" y="-121.2" font-family="Arial" font-size="14.00">    </text>
<text text-anchor="start" x="215.27" y="-121.2" font-family="Arial" font-size="14.00" fill="#666666">[BASIC TABLE]</text>
<polygon fill="none" stroke="black" points="46.2,-77 46.2,-107.8 320.31,-107.8 320.31,-77 46.2,-77"/>
<text text-anchor="start" x="53.2" y="-89.2" font-family="Arial" font-size="14.00">code </text>
<text text-anchor="start" x="87.45" y="-89.2" font-family="Arial" font-size="14.00" fill="#666666">[S]</text>
<polygon fill="none" stroke="black" points="46.2,-46.2 46.2,-77 320.31,-77 320.31,-46.2 46.2,-46.2"/>
<text text-anchor="start" x="53.2" y="-58.4" font-family="Arial" font-size="14.00">date </text>
<text text-anchor="start" x="84.34" y="-58.4" font-family="Arial" font-size="14.00" fill="#666666">[S]</text>
<polygon fill="none" stroke="black" stroke-width="3" points="44.7,-44.7 44.7,-144.9 321.81,-144.9 321.81,-44.7 44.7,-44.7"/>
</g>
</g>
</svg>
