<svg id="my-svg" width="100%" xmlns="http://www.w3.org/2000/svg" xmlns:xlink="http://www.w3.org/1999/xlink" class="flowchart" style="max-width: 1106.69px; background-color: transparent;" viewBox="0 0 1106.69091796875 944.7345581054688" role="graphics-document document" aria-roledescription="flowchart-v2"><style>#my-svg{font-family:"trebuchet ms",verdana,arial,sans-serif;font-size:16px;fill:#333;}@keyframes edge-animation-frame{from{stroke-dashoffset:0;}}@keyframes dash{to{stroke-dashoffset:0;}}#my-svg .edge-animation-slow{stroke-dasharray:9,5!important;stroke-dashoffset:900;animation:dash 50s linear infinite;stroke-linecap:round;}#my-svg .edge-animation-fast{stroke-dasharray:9,5!important;stroke-dashoffset:900;animation:dash 20s linear infinite;stroke-linecap:round;}#my-svg .error-icon{fill:#552222;}#my-svg .error-text{fill:#552222;stroke:#552222;}#my-svg .edge-thickness-normal{stroke-width:1px;}#my-svg .edge-thickness-thick{stroke-width:3.5px;}#my-svg .edge-pattern-solid{stroke-dasharray:0;}#my-svg .edge-thickness-invisible{stroke-width:0;fill:none;}#my-svg .edge-pattern-dashed{stroke-dasharray:3;}#my-svg .edge-pattern-dotted{stroke-dasharray:2;}#my-svg .marker{fill:#333333;stroke:#333333;}#my-svg .marker.cross{stroke:#333333;}#my-svg svg{font-family:"trebuchet ms",verdana,arial,sans-serif;font-size:16px;}#my-svg p{margin:0;}#my-svg .label{font-family:"trebuchet ms",verdana,arial,sans-serif;color:#333;}#my-svg .cluster-label text{fill:#333;}#my-svg .cluster-label span{color:#333;}#my-svg .cluster-label span p{background-color:transparent;}#my-svg .label text,#my-svg span{fill:#333;color:#333;}#my-svg .node rect,#my-svg .node circle,#my-svg .node ellipse,#my-svg .node polygon,#my-svg .node path{fill:#ECECFF;stroke:#9370DB;stroke-width:1px;}#my-svg .rough-node .label text,#my-svg .node .label text,#my-svg .image-shape .label,#my-svg .icon-shape .label{text-anchor:middle;}#my-svg .node .katex path{fill:#000;stroke:#000;stroke-width:1px;}#my-svg .rough-node .label,#my-svg .node .label,#my-svg .image-shape .label,#my-svg .icon-shape .label{text-align:center;}#my-svg .node.clickable{cursor:pointer;}#my-svg .root .anchor path{fill:#333333!important;stroke-width:0;stroke:#333333;}#my-svg .arrowheadPath{fill:#333333;}#my-svg .edgePath .path{stroke:#333333;stroke-width:2.0px;}#my-svg .flowchart-link{stroke:#333333;fill:none;}#my-svg .edgeLabel{background-color:rgba(232,232,232, 0.8);text-align:center;}#my-svg .edgeLabel p{background-color:rgba(232,232,232, 0.8);}#my-svg .edgeLabel rect{opacity:0.5;background-color:rgba(232,232,232, 0.8);fill:rgba(232,232,232, 0.8);}#my-svg .labelBkg{background-color:rgba(232, 232, 232, 0.5);}#my-svg .cluster rect{fill:#ffffde;stroke:#aaaa33;stroke-width:1px;}#my-svg .cluster text{fill:#333;}#my-svg .cluster span{color:#333;}#my-svg div.mermaidTooltip{position:absolute;text-align:center;max-width:200px;padding:2px;font-family:"trebuchet ms",verdana,arial,sans-serif;font-size:12px;background:hsl(80, 100%, 96.2745098039%);border:1px solid #aaaa33;border-radius:2px;pointer-events:none;z-index:100;}#my-svg .flowchartTitleText{text-anchor:middle;font-size:18px;fill:#333;}#my-svg rect.text{fill:none;stroke-width:0;}#my-svg .icon-shape,#my-svg .image-shape{background-color:rgba(232,232,232, 0.8);text-align:center;}#my-svg .icon-shape p,#my-svg .image-shape p{background-color:rgba(232,232,232, 0.8);padding:2px;}#my-svg .icon-shape .label rect,#my-svg .image-shape .label rect{opacity:0.5;background-color:rgba(232,232,232, 0.8);fill:rgba(232,232,232, 0.8);}#my-svg .label-icon{display:inline-block;height:1em;overflow:visible;vertical-align:-0.125em;}#my-svg .node .label-icon path{fill:currentColor;stroke:revert;stroke-width:revert;}#my-svg :root{--mermaid-font-family:"trebuchet ms",verdana,arial,sans-serif;}#my-svg .compute&gt;*{fill:#ED7100!important;stroke:#232F3E!important;color:white!important;}#my-svg .compute span{fill:#ED7100!important;stroke:#232F3E!important;color:white!important;}#my-svg .compute tspan{fill:white!important;}#my-svg .storage&gt;*{fill:#3F8624!important;stroke:#232F3E!important;color:white!important;}#my-svg .storage span{fill:#3F8624!important;stroke:#232F3E!important;color:white!important;}#my-svg .storage tspan{fill:white!important;}#my-svg .network&gt;*{fill:#8C4FFF!important;stroke:#232F3E!important;color:white!important;}#my-svg .network span{fill:#8C4FFF!important;stroke:#232F3E!important;color:white!important;}#my-svg .network tspan{fill:white!important;}#my-svg .security&gt;*{fill:#DD344C!important;stroke:#232F3E!important;color:white!important;}#my-svg .security span{fill:#DD344C!important;stroke:#232F3E!important;color:white!important;}#my-svg .security tspan{fill:white!important;}#my-svg .ai&gt;*{fill:#1A73E8!important;stroke:#232F3E!important;color:white!important;}#my-svg .ai span{fill:#1A73E8!important;stroke:#232F3E!important;color:white!important;}#my-svg .ai tspan{fill:white!important;}</style><g><marker id="my-svg_flowchart-v2-pointEnd" class="marker flowchart-v2" viewBox="0 0 10 10" refX="5" refY="5" markerUnits="userSpaceOnUse" markerWidth="8" markerHeight="8" orient="auto"><path d="M 0 0 L 10 5 L 0 10 z" class="arrowMarkerPath" style="stroke-width: 1; stroke-dasharray: 1, 0;"/></marker><marker id="my-svg_flowchart-v2-pointStart" class="marker flowchart-v2" viewBox="0 0 10 10" refX="4.5" refY="5" markerUnits="userSpaceOnUse" markerWidth="8" markerHeight="8" orient="auto"><path d="M 0 5 L 10 10 L 10 0 z" class="arrowMarkerPath" style="stroke-width: 1; stroke-dasharray: 1, 0;"/></marker><marker id="my-svg_flowchart-v2-circleEnd" class="marker flowchart-v2" viewBox="0 0 10 10" refX="11" refY="5" markerUnits="userSpaceOnUse" markerWidth="11" markerHeight="11" orient="auto"><circle cx="5" cy="5" r="5" class="arrowMarkerPath" style="stroke-width: 1; stroke-dasharray: 1, 0;"/></marker><marker id="my-svg_flowchart-v2-circleStart" class="marker flowchart-v2" viewBox="0 0 10 10" refX="-1" refY="5" markerUnits="userSpaceOnUse" markerWidth="11" markerHeight="11" orient="auto"><circle cx="5" cy="5" r="5" class="arrowMarkerPath" style="stroke-width: 1; stroke-dasharray: 1, 0;"/></marker><marker id="my-svg_flowchart-v2-crossEnd" class="marker cross flowchart-v2" viewBox="0 0 11 11" refX="12" refY="5.2" markerUnits="userSpaceOnUse" markerWidth="11" markerHeight="11" orient="auto"><path d="M 1,1 l 9,9 M 10,1 l -9,9" class="arrowMarkerPath" style="stroke-width: 2; stroke-dasharray: 1, 0;"/></marker><marker id="my-svg_flowchart-v2-crossStart" class="marker cross flowchart-v2" viewBox="0 0 11 11" refX="-1" refY="5.2" markerUnits="userSpaceOnUse" markerWidth="11" markerHeight="11" orient="auto"><path d="M 1,1 l 9,9 M 10,1 l -9,9" class="arrowMarkerPath" style="stroke-width: 2; stroke-dasharray: 1, 0;"/></marker><g class="root"><g class="clusters"><g class="cluster" id="subGraph4" data-look="classic"><rect style="" x="156.51121139526367" y="8" width="942.1796875" height="928.7345657348633"/><g class="cluster-label" transform="translate(586.5463676452637, 8)"><foreignObject width="82.109375" height="24"><div xmlns="http://www.w3.org/1999/xhtml" style="display: table-cell; white-space: nowrap; line-height: 1.5;"><span class="nodeLabel"><p>AWS Cloud</p></span></div></foreignObject></g></g><g class="cluster" id="Users" data-look="classic"><rect style="" x="8" y="8" width="128.51121139526367" height="128"/><g class="cluster-label" transform="translate(51.364980697631836, 8)"><foreignObject width="41.78125" height="24"><div xmlns="http://www.w3.org/1999/xhtml" style="display: table-cell; white-space: nowrap; line-height: 1.5;"><span class="nodeLabel"><p>Users</p></span></div></foreignObject></g></g><g class="cluster" id="Monitoring" data-look="classic"><rect style="" x="677.7494926452637" y="412" width="326.65625" height="280"/><g class="cluster-label" transform="translate(803.7260551452637, 412)"><foreignObject width="74.703125" height="24"><div xmlns="http://www.w3.org/1999/xhtml" style="display: table-cell; white-space: nowrap; line-height: 1.5;"><span class="nodeLabel"><p>Monitoring</p></span></div></foreignObject></g></g><g class="cluster" id="subGraph2" data-look="classic"><rect style="" x="181.26902389526367" y="766" width="750.609375" height="145.73456573486328"/><g class="cluster-label" transform="translate(508.9955863952637, 766)"><foreignObject width="95.15625" height="24"><div xmlns="http://www.w3.org/1999/xhtml" style="display: table-cell; white-space: nowrap; line-height: 1.5;"><span class="nodeLabel"><p>Safety Check</p></span></div></foreignObject></g></g><g class="cluster" id="CloudFront" data-look="classic"><rect style="" x="256.8276176452637" y="210" width="435.66796875" height="128"/><g class="cluster-label" transform="translate(435.0834770202637, 210)"><foreignObject width="79.15625" height="24"><div xmlns="http://www.w3.org/1999/xhtml" style="display: table-cell; white-space: nowrap; line-height: 1.5;"><span class="nodeLabel"><p>CloudFront</p></span></div></foreignObject></g></g></g><g class="edgePaths"><path d="M72.756,92L72.672,99.333C72.589,106.667,72.422,121.333,113.112,134.833C153.802,148.333,235.348,160.667,276.121,173C316.894,185.333,316.894,197.667,328.937,208.016C340.98,218.365,365.065,226.729,377.108,230.912L389.151,235.094" id="L_User_CF_0" class="edge-thickness-normal edge-pattern-solid edge-thickness-normal edge-pattern-solid flowchart-link" style=";" data-edge="true" data-et="edge" data-id="L_User_CF_0" data-points="W3sieCI6NzIuNzU1NjA1Njk3NjMxODQsInkiOjkyfSx7IngiOjcyLjI1NTYwNTY5NzYzMTg0LCJ5IjoxMzZ9LHsieCI6MzE2Ljg5NDAyMzg5NTI2MzcsInkiOjE3M30seyJ4IjozMTYuODk0MDIzODk1MjYzNywieSI6MjEwfSx7IngiOjM5Mi45MjkxODAxNDUyNjM3LCJ5IjoyMzYuNDA2MDg3NzEyMjMyNjV9XQ==" marker-end="url(#my-svg_flowchart-v2-pointEnd)"/><path d="M453.699,111L453.699,115.167C453.699,119.333,453.699,127.667,453.699,138C453.699,148.333,453.699,160.667,453.699,173C453.699,185.333,453.699,197.667,456.393,207.465C459.087,217.263,464.475,224.525,467.169,228.156L469.862,231.788" id="L_R53_CF_0" class="edge-thickness-normal edge-pattern-solid edge-thickness-normal edge-pattern-solid flowchart-link" style=";" data-edge="true" data-et="edge" data-id="L_R53_CF_0" data-points="W3sieCI6NDUzLjY5ODcxMTM5NTI2MzcsInkiOjExMX0seyJ4Ijo0NTMuNjk4NzExMzk1MjYzNywieSI6MTM2fSx7IngiOjQ1My42OTg3MTEzOTUyNjM3LCJ5IjoxNzN9LHsieCI6NDUzLjY5ODcxMTM5NTI2MzcsInkiOjIxMH0seyJ4Ijo0NzIuMjQ1NzY5NTAwNzMyNCwieSI6MjM1fV0=" marker-end="url(#my-svg_flowchart-v2-pointEnd)"/><path d="M656.71,111L656.71,115.167C656.71,119.333,656.71,127.667,656.71,138C656.71,148.333,656.71,160.667,656.71,173C656.71,185.333,656.71,197.667,647.201,207.746C637.692,217.826,618.674,225.652,609.164,229.565L599.655,233.478" id="L_ACM_CF_0" class="edge-thickness-normal edge-pattern-dotted edge-thickness-normal edge-pattern-solid flowchart-link" style=";" data-edge="true" data-et="edge" data-id="L_ACM_CF_0" data-points="W3sieCI6NjU2LjcxMDQzMDE0NTI2MzcsInkiOjExMX0seyJ4Ijo2NTYuNzEwNDMwMTQ1MjYzNywieSI6MTM2fSx7IngiOjY1Ni43MTA0MzAxNDUyNjM3LCJ5IjoxNzN9LHsieCI6NjU2LjcxMDQzMDE0NTI2MzcsInkiOjIxMH0seyJ4Ijo1OTUuOTU2MDM1NjE0MDEzNywieSI6MjM1fV0=" marker-end="url(#my-svg_flowchart-v2-pointEnd)"/><path d="M536.38,313L540.141,317.167C543.902,321.333,551.423,329.667,555.184,340C558.945,350.333,558.945,362.667,558.945,375C558.945,387.333,558.945,399.667,558.945,409.333C558.945,419,558.945,426,558.945,429.5L558.945,433" id="L_CF_S3_0" class="edge-thickness-normal edge-pattern-solid edge-thickness-normal edge-pattern-solid flowchart-link" style=";" data-edge="true" data-et="edge" data-id="L_CF_S3_0" data-points="W3sieCI6NTM2LjM4MDEwNzg3OTYzODcsInkiOjMxM30seyJ4Ijo1NTguOTQ0ODA1MTQ1MjYzNywieSI6MzM4fSx7IngiOjU1OC45NDQ4MDUxNDUyNjM3LCJ5IjozNzV9LHsieCI6NTU4Ljk0NDgwNTE0NTI2MzcsInkiOjQxMn0seyJ4Ijo1NTguOTQ0ODA1MTQ1MjYzNywieSI6NDM3fV0=" marker-end="url(#my-svg_flowchart-v2-pointEnd)"/><path d="M408.111,313L398.168,317.167C388.225,321.333,368.339,329.667,358.396,340C348.453,350.333,348.453,362.667,348.453,375C348.453,387.333,348.453,399.667,348.453,409.333C348.453,419,348.453,426,348.453,429.5L348.453,433" id="L_CF_APIGW_0" class="edge-thickness-normal edge-pattern-solid edge-thickness-normal edge-pattern-solid flowchart-link" style=";" data-edge="true" data-et="edge" data-id="L_CF_APIGW_0" data-points="W3sieCI6NDA4LjExMTQzMTEyMTgyNjIsInkiOjMxM30seyJ4IjozNDguNDUyNjE3NjQ1MjYzNywieSI6MzM4fSx7IngiOjM0OC40NTI2MTc2NDUyNjM3LCJ5IjozNzV9LHsieCI6MzQ4LjQ1MjYxNzY0NTI2MzcsInkiOjQxMn0seyJ4IjozNDguNDUyNjE3NjQ1MjYzNywieSI6NDM3fV0=" marker-end="url(#my-svg_flowchart-v2-pointEnd)"/><path d="M348.453,515L348.453,521.167C348.453,527.333,348.453,539.667,348.453,551.333C348.453,563,348.453,574,348.453,579.5L348.453,585" id="L_APIGW_Lambda_0" class="edge-thickness-normal edge-pattern-solid edge-thickness-normal edge-pattern-solid flowchart-link" style=";" data-edge="true" data-et="edge" data-id="L_APIGW_Lambda_0" data-points="W3sieCI6MzQ4LjQ1MjYxNzY0NTI2MzcsInkiOjUxNX0seyJ4IjozNDguNDUyNjE3NjQ1MjYzNywieSI6NTUyfSx7IngiOjM0OC40NTI2MTc2NDUyNjM3LCJ5Ijo1ODl9XQ==" marker-end="url(#my-svg_flowchart-v2-pointEnd)"/><path d="M407.367,633.398L513.97,643.165C620.574,652.932,833.781,672.466,931.337,688.4C1028.893,704.333,1010.798,716.667,1001.75,729C992.703,741.333,992.703,753.667,993.8,763.45C994.898,773.232,997.093,780.465,998.191,784.081L999.288,787.697" id="L_Lambda_DDB_0" class="edge-thickness-normal edge-pattern-solid edge-thickness-normal edge-pattern-solid flowchart-link" style=";" data-edge="true" data-et="edge" data-id="L_Lambda_DDB_0" data-points="W3sieCI6NDA3LjM2NjY4MDE0NTI2MzcsInkiOjYzMy4zOTc3MjQwMzE4NzQ4fSx7IngiOjEwNDYuOTg3NzczODk1MjYzNywieSI6NjkyfSx7IngiOjk5Mi43MDI2MTc2NDUyNjM3LCJ5Ijo3Mjl9LHsieCI6OTkyLjcwMjYxNzY0NTI2MzcsInkiOjc2Nn0seyJ4IjoxMDAwLjQ1MDI3NTU2NTcyMDIsInkiOjc5MS41MjUwMDkwMDMzNn1d" marker-end="url(#my-svg_flowchart-v2-pointEnd)"/><path d="M302.821,667L297.946,671.167C293.071,675.333,283.32,683.667,278.445,694C273.57,704.333,273.57,716.667,273.57,729C273.57,741.333,273.57,753.667,277.49,764.949C281.41,776.231,289.25,786.462,293.17,791.577L297.09,796.692" id="L_Lambda_GSB_0" class="edge-thickness-normal edge-pattern-solid edge-thickness-normal edge-pattern-solid flowchart-link" style=";" data-edge="true" data-et="edge" data-id="L_Lambda_GSB_0" data-points="W3sieCI6MzAyLjgyMDkwMzc3ODA3NjIsInkiOjY2N30seyJ4IjoyNzMuNTY5ODA1MTQ1MjYzNywieSI6NjkyfSx7IngiOjI3My41Njk4MDUxNDUyNjM3LCJ5Ijo3Mjl9LHsieCI6MjczLjU2OTgwNTE0NTI2MzcsInkiOjc2Nn0seyJ4IjoyOTkuNTIzMDY4NTE4NTUzMSwieSI6Nzk5Ljg2NzI4Mjg2NzQzMTZ9XQ==" marker-end="url(#my-svg_flowchart-v2-pointEnd)"/><path d="M407.367,661.556L416.275,666.63C425.183,671.704,442.999,681.852,476.425,693.093C509.851,704.333,558.886,716.667,583.404,729C607.921,741.333,607.921,753.667,627.505,767.491C647.088,781.315,686.256,796.63,705.839,804.288L725.423,811.945" id="L_Lambda_Groq_0" class="edge-thickness-normal edge-pattern-solid edge-thickness-normal edge-pattern-solid flowchart-link" style=";" data-edge="true" data-et="edge" data-id="L_Lambda_Groq_0" data-points="W3sieCI6NDA3LjM2NjY4MDE0NTI2MzcsInkiOjY2MS41NTYzMzU4MjQ3ODcxfSx7IngiOjQ2MC44MTU4OTg4OTUyNjM3LCJ5Ijo2OTJ9LHsieCI6NjA3LjkyMTM2NzY0NTI2MzcsInkiOjcyOX0seyJ4Ijo2MDcuOTIxMzY3NjQ1MjYzNywieSI6NzY2fSx7IngiOjcyOS4xNDc5MzAxNDUyNjM3LCJ5Ijo4MTMuNDAyMDcyMjAyODIzfV0=" marker-end="url(#my-svg_flowchart-v2-pointEnd)"/><path d="M886.039,515L886.039,521.167C886.039,527.333,886.039,539.667,886.039,551.333C886.039,563,886.039,574,886.039,579.5L886.039,585" id="L_EB_MonLambda_0" class="edge-thickness-normal edge-pattern-solid edge-thickness-normal edge-pattern-solid flowchart-link" style=";" data-edge="true" data-et="edge" data-id="L_EB_MonLambda_0" data-points="W3sieCI6ODg2LjAzODU1NTE0NTI2MzcsInkiOjUxNX0seyJ4Ijo4ODYuMDM4NTU1MTQ1MjYzNywieSI6NTUyfSx7IngiOjg4Ni4wMzg1NTUxNDUyNjM3LCJ5Ijo1ODl9XQ==" marker-end="url(#my-svg_flowchart-v2-pointEnd)"/><path d="M908.793,667L911.224,671.167C913.654,675.333,918.516,683.667,941.549,694C964.582,704.333,1005.785,716.667,1026.386,729C1046.988,741.333,1046.988,753.667,1045.432,763.562C1043.876,773.457,1040.764,780.913,1039.207,784.642L1037.651,788.37" id="L_MonLambda_DDB_0" class="edge-thickness-normal edge-pattern-solid edge-thickness-normal edge-pattern-solid flowchart-link" style=";" data-edge="true" data-et="edge" data-id="L_MonLambda_DDB_0" data-points="W3sieCI6OTA4Ljc5MjUyMjQzMDQxOTksInkiOjY2N30seyJ4Ijo5MjMuMzc4Mzk4ODk1MjYzNywieSI6NjkyfSx7IngiOjEwNDYuOTg3NzczODk1MjYzNywieSI6NzI5fSx7IngiOjEwNDYuOTg3NzczODk1MjYzNywieSI6NzY2fSx7IngiOjEwMzYuMTEwNzY0NDM2MjczLCJ5Ijo3OTIuMDYxNTEyMzAzNDgxMX1d" marker-end="url(#my-svg_flowchart-v2-pointEnd)"/><path d="M811.429,664.985L802.346,669.488C793.264,673.99,775.098,682.995,732.067,693.664C689.036,704.333,621.139,716.667,587.19,729C553.242,741.333,553.242,753.667,534.837,765.825C516.433,777.983,479.624,789.966,461.219,795.957L442.815,801.949" id="L_MonLambda_GSB_0" class="edge-thickness-normal edge-pattern-solid edge-thickness-normal edge-pattern-solid flowchart-link" style=";" data-edge="true" data-et="edge" data-id="L_MonLambda_GSB_0" data-points="W3sieCI6ODExLjQyOTE4MDE0NTI2MzcsInkiOjY2NC45ODUyNjUxOTYyMTE5fSx7IngiOjc1Ni45MzMwODYzOTUyNjM3LCJ5Ijo2OTJ9LHsieCI6NTUzLjI0MTY4MDE0NTI2MzcsInkiOjcyOX0seyJ4Ijo1NTMuMjQxNjgwMTQ1MjYzNywieSI6NzY2fSx7IngiOjQzOS4wMTEyMTEzOTUyNjM3LCJ5Ijo4MDMuMTg3MDk4ODc5NDY2NH1d" marker-end="url(#my-svg_flowchart-v2-pointEnd)"/><path d="M869.619,667L867.865,671.167C866.11,675.333,862.602,683.667,860.847,694C859.093,704.333,859.093,716.667,859.093,729C859.093,741.333,859.093,753.667,854.515,764.98C849.937,776.293,840.781,786.586,836.203,791.732L831.625,796.879" id="L_MonLambda_Groq_0" class="edge-thickness-normal edge-pattern-solid edge-thickness-normal edge-pattern-solid flowchart-link" style=";" data-edge="true" data-et="edge" data-id="L_MonLambda_Groq_0" data-points="W3sieCI6ODY5LjYxODc1NTM0MDU3NjIsInkiOjY2N30seyJ4Ijo4NTkuMDkzMjQyNjQ1MjYzNywieSI6NjkyfSx7IngiOjg1OS4wOTMyNDI2NDUyNjM3LCJ5Ijo3Mjl9LHsieCI6ODU5LjA5MzI0MjY0NTI2MzcsInkiOjc2Nn0seyJ4Ijo4MjguOTY2MDMzNjYxOTU3MiwieSI6Nzk5Ljg2NzI4Mjg2NzQzMTZ9XQ==" marker-end="url(#my-svg_flowchart-v2-pointEnd)"/></g><g class="edgeLabels"><g class="edgeLabel" transform="translate(316.8940238952637, 173)"><g class="label" data-id="L_User_CF_0" transform="translate(-26.2265625, -12)"><foreignObject width="52.453125" height="24"><div xmlns="http://www.w3.org/1999/xhtml" class="labelBkg" style="display: table-cell; white-space: nowrap; line-height: 1.5; max-width: 200px; text-align: center;"><span class="edgeLabel"><p>HTTPS</p></span></div></foreignObject></g></g><g class="edgeLabel" transform="translate(453.6987113952637, 173)"><g class="label" data-id="L_R53_CF_0" transform="translate(-16.890625, -12)"><foreignObject width="33.78125" height="24"><div xmlns="http://www.w3.org/1999/xhtml" class="labelBkg" style="display: table-cell; white-space: nowrap; line-height: 1.5; max-width: 200px; text-align: center;"><span class="edgeLabel"><p>DNS</p></span></div></foreignObject></g></g><g class="edgeLabel" transform="translate(656.7104301452637, 173)"><g class="label" data-id="L_ACM_CF_0" transform="translate(-15.125, -12)"><foreignObject width="30.25" height="24"><div xmlns="http://www.w3.org/1999/xhtml" class="labelBkg" style="display: table-cell; white-space: nowrap; line-height: 1.5; max-width: 200px; text-align: center;"><span class="edgeLabel"><p>SSL</p></span></div></foreignObject></g></g><g class="edgeLabel" transform="translate(558.9448051452637, 375)"><g class="label" data-id="L_CF_S3_0" transform="translate(-29.796875, -12)"><foreignObject width="59.59375" height="24"><div xmlns="http://www.w3.org/1999/xhtml" class="labelBkg" style="display: table-cell; white-space: nowrap; line-height: 1.5; max-width: 200px; text-align: center;"><span class="edgeLabel"><p>Default /</p></span></div></foreignObject></g></g><g class="edgeLabel" transform="translate(348.4526176452637, 375)"><g class="label" data-id="L_CF_APIGW_0" transform="translate(-61.3671875, -12)"><foreignObject width="122.734375" height="24"><div xmlns="http://www.w3.org/1999/xhtml" class="labelBkg" style="display: table-cell; white-space: nowrap; line-height: 1.5; max-width: 200px; text-align: center;"><span class="edgeLabel"><p>/api/*, /r/*, /health</p></span></div></foreignObject></g></g><g class="edgeLabel"><g class="label" data-id="L_APIGW_Lambda_0" transform="translate(0, 0)"><foreignObject width="0" height="0"><div xmlns="http://www.w3.org/1999/xhtml" class="labelBkg" style="display: table-cell; white-space: nowrap; line-height: 1.5; max-width: 200px; text-align: center;"><span class="edgeLabel"></span></div></foreignObject></g></g><g class="edgeLabel"><g class="label" data-id="L_Lambda_DDB_0" transform="translate(0, 0)"><foreignObject width="0" height="0"><div xmlns="http://www.w3.org/1999/xhtml" class="labelBkg" style="display: table-cell; white-space: nowrap; line-height: 1.5; max-width: 200px; text-align: center;"><span class="edgeLabel"></span></div></foreignObject></g></g><g class="edgeLabel" transform="translate(273.5698051452637, 729)"><g class="label" data-id="L_Lambda_GSB_0" transform="translate(-40.609375, -12)"><foreignObject width="81.21875" height="24"><div xmlns="http://www.w3.org/1999/xhtml" class="labelBkg" style="display: table-cell; white-space: nowrap; line-height: 1.5; max-width: 200px; text-align: center;"><span class="edgeLabel"><p>URL Check</p></span></div></foreignObject></g></g><g class="edgeLabel" transform="translate(607.9213676452637, 729)"><g class="label" data-id="L_Lambda_Groq_0" transform="translate(-34.6796875, -12)"><foreignObject width="69.359375" height="24"><div xmlns="http://www.w3.org/1999/xhtml" class="labelBkg" style="display: table-cell; white-space: nowrap; line-height: 1.5; max-width: 200px; text-align: center;"><span class="edgeLabel"><p>AI Predict</p></span></div></foreignObject></g></g><g class="edgeLabel" transform="translate(886.0385551452637, 552)"><g class="label" data-id="L_EB_MonLambda_0" transform="translate(-17.78125, -12)"><foreignObject width="35.5625" height="24"><div xmlns="http://www.w3.org/1999/xhtml" class="labelBkg" style="display: table-cell; white-space: nowrap; line-height: 1.5; max-width: 200px; text-align: center;"><span class="edgeLabel"><p>Daily</p></span></div></foreignObject></g></g><g class="edgeLabel"><g class="label" data-id="L_MonLambda_DDB_0" transform="translate(0, 0)"><foreignObject width="0" height="0"><div xmlns="http://www.w3.org/1999/xhtml" class="labelBkg" style="display: table-cell; white-space: nowrap; line-height: 1.5; max-width: 200px; text-align: center;"><span class="edgeLabel"></span></div></foreignObject></g></g><g class="edgeLabel"><g class="label" data-id="L_MonLambda_GSB_0" transform="translate(0, 0)"><foreignObject width="0" height="0"><div xmlns="http://www.w3.org/1999/xhtml" class="labelBkg" style="display: table-cell; white-space: nowrap; line-height: 1.5; max-width: 200px; text-align: center;"><span class="edgeLabel"></span></div></foreignObject></g></g><g class="edgeLabel"><g class="label" data-id="L_MonLambda_Groq_0" transform="translate(0, 0)"><foreignObject width="0" height="0"><div xmlns="http://www.w3.org/1999/xhtml" class="labelBkg" style="display: table-cell; white-space: nowrap; line-height: 1.5; max-width: 200px; text-align: center;"><span class="edgeLabel"></span></div></foreignObject></g></g></g><g class="nodes"><g class="node default" id="flowchart-User-0" transform="translate(72.25560569763184, 72)"><g class="basic label-container outer-path"><path d="M-9.765625 -19.5 C-4.629744278489125 -19.5, 0.5061364430217505 -19.5, 9.765625 -19.5 C9.765625 -19.5, 9.765624999999998 -19.5, 9.765624999999998 -19.5 C10.262103914890657 -19.48407888753704, 10.758582829781316 -19.468157775074083, 11.0149942896239 -19.45993515863156 C11.387578422986559 -19.423992415384042, 11.760162556349218 -19.388049672136525, 12.259229652847864 -19.3399052695533 C12.52536201042869 -19.29687905386689, 12.791494368009515 -19.253852838180478, 13.493218259676757 -19.140403561325776 C13.767568029869455 -19.077785016578854, 14.041917800062155 -19.015166471831932, 14.71188938623539 -18.862249829261074 C15.185931889058105 -18.721556502723168, 15.65997439188082 -18.58086317618526, 15.910235251460602 -18.50658706670804 C16.378832957163574 -18.33413877933964, 16.847430662866547 -18.161690491971235, 17.083331595147794 -18.074876768247425 C17.37667865784561 -17.94502072542254, 17.670025720543425 -17.815164682597654, 18.22635791279238 -17.568892924097174 C18.61355891118618 -17.366890411249205, 19.000759909579976 -17.16488789840124, 19.334617264076783 -16.990714730406097 C19.64644275727848 -16.801684283937227, 19.958268250480174 -16.612653837468358, 20.403555573605697 -16.342718045390892 C20.61291104318566 -16.19668073266412, 20.822266512765626 -16.050643419937348, 21.428780344578712 -15.627565626425154 C21.63640531254937 -15.46199023960099, 21.844030280520034 -15.296414852776827, 22.40607870850187 -14.848196188198123 C22.603610537870715 -14.668803007171144, 22.80114236723956 -14.489409826144167, 23.331434736767985 -14.007812326905688 C23.577054960248052 -13.754189280367136, 23.822675183728123 -13.500566233828586, 24.201045942968648 -13.10986736009568 C24.49158742237304 -12.768580806108766, 24.782128901777433 -12.427294252121852, 25.011338908126582 -12.158051136245305 C25.28050841059424 -11.797388524784779, 25.549677913061895 -11.436725913324254, 25.758983964640635 -11.156274872382312 C25.962522303602206 -10.843585326040525, 26.16606064256378 -10.530895779698739, 26.440908878604247 -10.108655082055241 C26.578375507185733 -9.864569163003237, 26.71584213576722 -9.620483243951233, 27.0543114742735 -9.019496659696287 C27.185763231439005 -8.746534273325087, 27.31721498860451 -8.473571886953888, 27.59667114880834 -7.893275190886684 C27.72768683379958 -7.5696639159423755, 27.858702518790817 -7.246052640998068, 28.065759229970325 -6.734618561215508 C28.213502871967773 -6.2896382512717866, 28.36124651396522 -5.844657941328064, 28.45964813421488 -5.548287939305138 C28.559528791423833 -5.167399704816734, 28.65940944863279 -4.78651147032833, 28.77671928754556 -4.339158212148133 C28.871591563229842 -3.8520091277719213, 28.96646383891412 -3.36486004339571, 29.015669776581777 -3.1121979531509023 C29.047646173101555 -2.86419533619723, 29.07962256962133 -2.616192719243558, 29.175517702509367 -1.872449005199798 C29.194579972951153 -1.5755387562812055, 29.21364224339294 -1.2786285073626134, 29.255606215913414 -0.6250057626472757 C29.255606215913414 -0.3292779373698227, 29.255606215913414 -0.03355011209236969, 29.255606215913414 0.625005762647271 C29.23090443347668 1.0097559630192965, 29.20620265103995 1.394506163391322, 29.175517702509367 1.8724490051997846 C29.12894867775067 2.2336291651341367, 29.08237965299198 2.5948093250684887, 29.015669776581777 3.1121979531508885 C28.963471040888507 3.3802274287291376, 28.911272305195236 3.648256904307387, 28.77671928754556 4.339158212148129 C28.65237028177003 4.81335486437025, 28.528021275994494 5.287551516592373, 28.459648134214884 5.548287939305125 C28.321816568842664 5.963414653728598, 28.183985003470447 6.37854136815207, 28.06575922997033 6.734618561215495 C27.91087759218711 7.117179200972808, 27.755995954403886 7.499739840730121, 27.596671148808344 7.893275190886679 C27.460517285613648 8.176001601036447, 27.324363422418955 8.458728011186215, 27.054311474273504 9.019496659696284 C26.859730951257458 9.364994081725794, 26.66515042824141 9.710491503755303, 26.44090887860425 10.108655082055236 C26.17898157441188 10.511045758624052, 25.917054270219502 10.913436435192867, 25.75898396464064 11.156274872382301 C25.536553177611996 11.454311863139122, 25.31412239058335 11.752348853895942, 25.011338908126582 12.158051136245302 C24.77147970786952 12.439803401242381, 24.531620507612462 12.72155566623946, 24.20104594296866 13.10986736009567 C23.990052158127813 13.327735765855742, 23.779058373286965 13.545604171615814, 23.33143473676799 14.007812326905684 C23.020059115620466 14.290595427484389, 22.70868349447294 14.573378528063095, 22.406078708501887 14.848196188198111 C22.089262971473268 15.100848307657602, 21.772447234444645 15.353500427117094, 21.428780344578715 15.627565626425152 C21.10906880298086 15.850582557754242, 20.789357261383007 16.073599489083332, 20.403555573605708 16.34271804539089 C19.99759180387871 16.588815668307316, 19.591628034151714 16.834913291223742, 19.334617264076787 16.990714730406093 C18.90688058759549 17.213864680547967, 18.479143911114196 17.43701463068984, 18.226357912792388 17.56889292409717 C17.912479101495297 17.707837762974272, 17.598600290198206 17.846782601851373, 17.083331595147804 18.07487676824742 C16.737844779262918 18.202019110138174, 16.392357963378036 18.329161452028927, 15.910235251460616 18.506587066708033 C15.554600859552064 18.612137487463475, 15.198966467643512 18.717687908218917, 14.711889386235413 18.86224982926107 C14.34555816694533 18.94586253952942, 13.979226947655246 19.029475249797766, 13.493218259676766 19.140403561325773 C13.176036210277065 19.191683095289186, 12.858854160877364 19.242962629252602, 12.259229652847878 19.3399052695533 C11.772486090570746 19.386860835611394, 11.285742528293614 19.43381640166949, 11.0149942896239 19.45993515863156 C10.567190801611359 19.47429534489551, 10.119387313598818 19.48865553115946, 9.765625000000004 19.5 C9.765625000000002 19.5, 9.765625000000002 19.5, 9.765625 19.5 C2.045588952658166 19.5, -5.674447094683668 19.5, -9.765624999999996 19.5 C-10.233170283455294 19.485006732781276, -10.700715566910594 19.470013465562552, -11.014994289623893 19.45993515863156 C-11.40464715030416 19.42234581578786, -11.794300010984427 19.38475647294416, -12.259229652847871 19.3399052695533 C-12.729524528017542 19.263871641327093, -13.199819403187215 19.187838013100887, -13.493218259676759 19.140403561325773 C-13.973192169292552 19.030852648578442, -14.453166078908346 18.921301735831108, -14.711889386235388 18.862249829261074 C-15.135689631762974 18.73646814096137, -15.559489877290561 18.610686452661668, -15.910235251460593 18.506587066708043 C-16.26245517818581 18.37696687778785, -16.614675104911026 18.247346688867662, -17.083331595147797 18.074876768247425 C-17.343382106165507 17.95976012114421, -17.60343261718322 17.844643474040996, -18.22635791279238 17.568892924097174 C-18.55749631662191 17.39613823092358, -18.888634720451442 17.22338353774998, -19.33461726407678 16.990714730406097 C-19.744795636451848 16.742062190596656, -20.154974008826915 16.493409650787214, -20.403555573605686 16.3427180453909 C-20.755769584367524 16.09702879858223, -21.107983595129365 15.851339551773556, -21.428780344578712 15.627565626425156 C-21.68866537492688 15.420314230553595, -21.94855040527505 15.213062834682034, -22.40607870850187 14.848196188198125 C-22.59418469505015 14.677363308226651, -22.782290681598425 14.506530428255175, -23.331434736767974 14.007812326905697 C-23.588035531528014 13.74285093899891, -23.844636326288054 13.477889551092122, -24.201045942968655 13.109867360095677 C-24.489087563702597 12.771517282349059, -24.77712918443654 12.43316720460244, -25.01133890812658 12.158051136245307 C-25.282370033422026 11.794894119792872, -25.553401158717477 11.431737103340437, -25.758983964640635 11.156274872382316 C-25.93968773782883 10.878665351007898, -26.12039151101703 10.60105582963348, -26.440908878604244 10.108655082055249 C-26.626531825184017 9.779062744041312, -26.81215477176379 9.449470406027375, -27.0543114742735 9.019496659696289 C-27.253924040586288 8.604996894723072, -27.453536606899075 8.190497129749854, -27.59667114880834 7.893275190886686 C-27.75387365182809 7.504981969124271, -27.91107615484784 7.116688747361857, -28.065759229970325 6.73461856121551 C-28.20912535912721 6.302822622485611, -28.35249148828409 5.871026683755712, -28.45964813421488 5.5482879393051325 C-28.52774404991817 5.288608699771938, -28.595839965621458 5.028929460238744, -28.776719287545557 4.339158212148136 C-28.863525142846115 3.8934284916037933, -28.950330998146672 3.4476987710594513, -29.015669776581777 3.112197953150904 C-29.05069885349951 2.8405193498505907, -29.085727930417246 2.568840746550277, -29.175517702509364 1.872449005199809 C-29.20092622186928 1.4766908067814228, -29.2263347412292 1.0809326083630366, -29.255606215913414 0.6250057626472781 C-29.255606215913414 0.13476195425324738, -29.255606215913414 -0.35548185414078337, -29.255606215913414 -0.6250057626472687 C-29.23501622037656 -0.9457115630790294, -29.214426224839706 -1.26641736351079, -29.175517702509367 -1.8724490051997822 C-29.123890561586084 -2.2728589152686745, -29.0722634206628 -2.6732688253375665, -29.015669776581777 -3.112197953150895 C-28.94175240687531 -3.4917480241519865, -28.86783503716884 -3.871298095153078, -28.77671928754556 -4.339158212148126 C-28.67647726687126 -4.72142448214581, -28.576235246196962 -5.103690752143495, -28.459648134214884 -5.548287939305123 C-28.37274144656941 -5.810037035793028, -28.28583475892394 -6.071786132280934, -28.065759229970332 -6.734618561215485 C-27.94957233507285 -7.021602437933064, -27.83338544017537 -7.3085863146506425, -27.596671148808344 -7.893275190886676 C-27.442861445924304 -8.212664329925817, -27.289051743040268 -8.532053468964959, -27.054311474273504 -9.019496659696282 C-26.9256032139189 -9.248031209080501, -26.7968949535643 -9.476565758464721, -26.440908878604247 -10.108655082055243 C-26.198159158383994 -10.481583839740532, -25.95540943816374 -10.854512597425822, -25.75898396464064 -11.156274872382308 C-25.605803698925488 -11.361522473431327, -25.452623433210334 -11.566770074480345, -25.011338908126586 -12.158051136245302 C-24.815052658747398 -12.38862013377009, -24.61876640936821 -12.619189131294878, -24.201045942968662 -13.10986736009567 C-23.894634051633695 -13.426262794783158, -23.588222160298724 -13.742658229470644, -23.331434736767996 -14.007812326905677 C-23.134434759242822 -14.18672249416026, -22.93743478171765 -14.365632661414846, -22.406078708501887 -14.848196188198107 C-22.02573845046811 -15.151507422700712, -21.645398192434335 -15.454818657203317, -21.42878034457872 -15.627565626425149 C-21.18553929439583 -15.79724005329738, -20.942298244212942 -15.96691448016961, -20.40355557360571 -16.342718045390885 C-20.035197600365034 -16.566018813481115, -19.666839627124357 -16.78931958157134, -19.33461726407679 -16.99071473040609 C-18.943636925672767 -17.19468892251661, -18.552656587268743 -17.39866311462713, -18.226357912792388 -17.56889292409717 C-17.897871967800153 -17.714303907755887, -17.56938602280792 -17.8597148914146, -17.083331595147804 -18.07487676824742 C-16.817284002311734 -18.172784741728083, -16.551236409475663 -18.270692715208746, -15.910235251460618 -18.506587066708033 C-15.457630510577623 -18.64091777803134, -15.005025769694628 -18.77524848935465, -14.711889386235413 -18.862249829261067 C-14.306436905310347 -18.95479171220751, -13.900984424385284 -19.047333595153955, -13.493218259676768 -19.140403561325773 C-13.089521589662851 -19.20567010821919, -12.685824919648937 -19.270936655112607, -12.25922965284788 -19.3399052695533 C-11.847271659155238 -19.379646361752854, -11.435313665462594 -19.419387453952407, -11.014994289623903 -19.45993515863156 C-10.580666833404122 -19.47386319478542, -10.146339377184342 -19.48779123093928, -9.765625000000005 -19.5 C-9.765625000000004 -19.5, -9.765625000000004 -19.5, -9.765625 -19.5" stroke="none" stroke-width="0" fill="#ECECFF" style=""/><path d="M-9.765625 -19.5 C-4.921986807528999 -19.5, -0.0783486150579975 -19.5, 9.765625 -19.5 M-9.765625 -19.5 C-2.586443823773564 -19.5, 4.592737352452872 -19.5, 9.765625 -19.5 M9.765625 -19.5 C9.765625 -19.5, 9.765625 -19.5, 9.765624999999998 -19.5 M9.765625 -19.5 C9.765625 -19.5, 9.765625 -19.5, 9.765624999999998 -19.5 M9.765624999999998 -19.5 C10.191576395449966 -19.486340567812015, 10.617527790899935 -19.47268113562403, 11.0149942896239 -19.45993515863156 M9.765624999999998 -19.5 C10.118895900636554 -19.48867128981668, 10.47216680127311 -19.47734257963336, 11.0149942896239 -19.45993515863156 M11.0149942896239 -19.45993515863156 C11.351081572418977 -19.427513222664412, 11.687168855214054 -19.395091286697266, 12.259229652847864 -19.3399052695533 M11.0149942896239 -19.45993515863156 C11.458115862322932 -19.417187753444946, 11.901237435021963 -19.37444034825833, 12.259229652847864 -19.3399052695533 M12.259229652847864 -19.3399052695533 C12.711946426009712 -19.2667135325395, 13.16466319917156 -19.193521795525708, 13.493218259676757 -19.140403561325776 M12.259229652847864 -19.3399052695533 C12.691598169508689 -19.2700032808475, 13.123966686169513 -19.200101292141706, 13.493218259676757 -19.140403561325776 M13.493218259676757 -19.140403561325776 C13.749091242816872 -19.082002222651305, 14.00496422595699 -19.02360088397683, 14.71188938623539 -18.862249829261074 M13.493218259676757 -19.140403561325776 C13.930905817659495 -19.040504232394454, 14.368593375642233 -18.940604903463136, 14.71188938623539 -18.862249829261074 M14.71188938623539 -18.862249829261074 C14.968828874713973 -18.785991537783527, 15.225768363192557 -18.70973324630598, 15.910235251460602 -18.50658706670804 M14.71188938623539 -18.862249829261074 C15.070763280287224 -18.755737941274, 15.429637174339058 -18.649226053286927, 15.910235251460602 -18.50658706670804 M15.910235251460602 -18.50658706670804 C16.238232025237178 -18.38588122198932, 16.566228799013757 -18.265175377270598, 17.083331595147794 -18.074876768247425 M15.910235251460602 -18.50658706670804 C16.31434248810941 -18.357871868094932, 16.71844972475822 -18.209156669481825, 17.083331595147794 -18.074876768247425 M17.083331595147794 -18.074876768247425 C17.53962888425269 -17.872887493938848, 17.995926173357585 -17.670898219630274, 18.22635791279238 -17.568892924097174 M17.083331595147794 -18.074876768247425 C17.53200440603451 -17.876262624273927, 17.980677216921222 -17.67764848030043, 18.22635791279238 -17.568892924097174 M18.22635791279238 -17.568892924097174 C18.504612432384803 -17.423727719456334, 18.782866951977223 -17.278562514815494, 19.334617264076783 -16.990714730406097 M18.22635791279238 -17.568892924097174 C18.529426278275857 -17.410782351949, 18.832494643759333 -17.25267177980082, 19.334617264076783 -16.990714730406097 M19.334617264076783 -16.990714730406097 C19.58954309623858 -16.836177192839138, 19.844468928400378 -16.68163965527218, 20.403555573605697 -16.342718045390892 M19.334617264076783 -16.990714730406097 C19.737308239844445 -16.74660109442089, 20.13999921561211 -16.50248745843568, 20.403555573605697 -16.342718045390892 M20.403555573605697 -16.342718045390892 C20.670795714900038 -16.156302891463223, 20.938035856194382 -15.969887737535553, 21.428780344578712 -15.627565626425154 M20.403555573605697 -16.342718045390892 C20.711197566555075 -16.12812030871664, 21.018839559504453 -15.913522572042387, 21.428780344578712 -15.627565626425154 M21.428780344578712 -15.627565626425154 C21.708196213049114 -15.404738906888543, 21.98761208151951 -15.181912187351934, 22.40607870850187 -14.848196188198123 M21.428780344578712 -15.627565626425154 C21.786804186252102 -15.342051140105177, 22.14482802792549 -15.056536653785201, 22.40607870850187 -14.848196188198123 M22.40607870850187 -14.848196188198123 C22.713265187811324 -14.569217555398135, 23.02045166712078 -14.290238922598146, 23.331434736767985 -14.007812326905688 M22.40607870850187 -14.848196188198123 C22.650134413515108 -14.626551254265202, 22.89419011852835 -14.40490632033228, 23.331434736767985 -14.007812326905688 M23.331434736767985 -14.007812326905688 C23.629424697259747 -13.700113227267192, 23.92741465775151 -13.392414127628697, 24.201045942968648 -13.10986736009568 M23.331434736767985 -14.007812326905688 C23.536482834079983 -13.796083331669175, 23.741530931391985 -13.58435433643266, 24.201045942968648 -13.10986736009568 M24.201045942968648 -13.10986736009568 C24.499373324834675 -12.759435042046931, 24.7977007067007 -12.409002723998181, 25.011338908126582 -12.158051136245305 M24.201045942968648 -13.10986736009568 C24.41466068624498 -12.858943327620073, 24.62827542952131 -12.608019295144468, 25.011338908126582 -12.158051136245305 M25.011338908126582 -12.158051136245305 C25.290377702841962 -11.78416457228385, 25.569416497557345 -11.410278008322395, 25.758983964640635 -11.156274872382312 M25.011338908126582 -12.158051136245305 C25.29431445456472 -11.778889683620816, 25.577290001002858 -11.39972823099633, 25.758983964640635 -11.156274872382312 M25.758983964640635 -11.156274872382312 C25.937120747722425 -10.882608937144697, 26.11525753080421 -10.608943001907083, 26.440908878604247 -10.108655082055241 M25.758983964640635 -11.156274872382312 C25.908123332055897 -10.927156754504855, 26.05726269947116 -10.698038636627398, 26.440908878604247 -10.108655082055241 M26.440908878604247 -10.108655082055241 C26.631294038080803 -9.770606952816719, 26.821679197557362 -9.432558823578196, 27.0543114742735 -9.019496659696287 M26.440908878604247 -10.108655082055241 C26.64564609251484 -9.745123426865987, 26.85038330642543 -9.381591771676733, 27.0543114742735 -9.019496659696287 M27.0543114742735 -9.019496659696287 C27.194295488683846 -8.728816858595112, 27.334279503094194 -8.438137057493936, 27.59667114880834 -7.893275190886684 M27.0543114742735 -9.019496659696287 C27.19412559746604 -8.729169641343976, 27.33393972065858 -8.438842622991665, 27.59667114880834 -7.893275190886684 M27.59667114880834 -7.893275190886684 C27.764326871370876 -7.479162314754334, 27.931982593933412 -7.065049438621985, 28.065759229970325 -6.734618561215508 M27.59667114880834 -7.893275190886684 C27.70470588445641 -7.626427305126439, 27.812740620104474 -7.359579419366195, 28.065759229970325 -6.734618561215508 M28.065759229970325 -6.734618561215508 C28.173828674464072 -6.409130612928003, 28.281898118957816 -6.083642664640498, 28.45964813421488 -5.548287939305138 M28.065759229970325 -6.734618561215508 C28.18182663106152 -6.385042041957825, 28.29789403215271 -6.035465522700142, 28.45964813421488 -5.548287939305138 M28.45964813421488 -5.548287939305138 C28.56221530667104 -5.157154857836073, 28.664782479127197 -4.766021776367007, 28.77671928754556 -4.339158212148133 M28.45964813421488 -5.548287939305138 C28.583405942461876 -5.07634577948596, 28.707163750708872 -4.604403619666782, 28.77671928754556 -4.339158212148133 M28.77671928754556 -4.339158212148133 C28.840885960149066 -4.009675909960182, 28.905052632752575 -3.6801936077722317, 29.015669776581777 -3.1121979531509023 M28.77671928754556 -4.339158212148133 C28.8718990712863 -3.850430138893848, 28.96707885502704 -3.3617020656395633, 29.015669776581777 -3.1121979531509023 M29.015669776581777 -3.1121979531509023 C29.056200550773518 -2.7978492722264106, 29.09673132496526 -2.483500591301919, 29.175517702509367 -1.872449005199798 M29.015669776581777 -3.1121979531509023 C29.073294684783047 -2.665270544467063, 29.13091959298432 -2.2183431357832233, 29.175517702509367 -1.872449005199798 M29.175517702509367 -1.872449005199798 C29.193373801608548 -1.5943258485463072, 29.211229900707725 -1.3162026918928165, 29.255606215913414 -0.6250057626472757 M29.175517702509367 -1.872449005199798 C29.20553569161114 -1.40489459485498, 29.235553680712915 -0.9373401845101619, 29.255606215913414 -0.6250057626472757 M29.255606215913414 -0.6250057626472757 C29.255606215913414 -0.36879512465530667, 29.255606215913414 -0.11258448666333765, 29.255606215913414 0.625005762647271 M29.255606215913414 -0.6250057626472757 C29.255606215913414 -0.16867144738148687, 29.255606215913414 0.28766286788430195, 29.255606215913414 0.625005762647271 M29.255606215913414 0.625005762647271 C29.233460375506862 0.96994510277996, 29.21131453510031 1.314884442912649, 29.175517702509367 1.8724490051997846 M29.255606215913414 0.625005762647271 C29.224747818108728 1.1056502169056497, 29.193889420304043 1.5862946711640284, 29.175517702509367 1.8724490051997846 M29.175517702509367 1.8724490051997846 C29.139781368655953 2.1496129536295654, 29.104045034802535 2.426776902059346, 29.015669776581777 3.1121979531508885 M29.175517702509367 1.8724490051997846 C29.122959251909183 2.280081969214815, 29.070400801309 2.687714933229845, 29.015669776581777 3.1121979531508885 M29.015669776581777 3.1121979531508885 C28.930372001651282 3.5501839997278615, 28.84507422672079 3.988170046304834, 28.77671928754556 4.339158212148129 M29.015669776581777 3.1121979531508885 C28.93583101906128 3.522153099091278, 28.855992261540777 3.9321082450316673, 28.77671928754556 4.339158212148129 M28.77671928754556 4.339158212148129 C28.649895901307488 4.822790749477186, 28.52307251506942 5.306423286806243, 28.459648134214884 5.548287939305125 M28.77671928754556 4.339158212148129 C28.693790143839685 4.655402978816868, 28.61086100013381 4.971647745485608, 28.459648134214884 5.548287939305125 M28.459648134214884 5.548287939305125 C28.320388566835987 5.967715568251493, 28.18112899945709 6.387143197197861, 28.06575922997033 6.734618561215495 M28.459648134214884 5.548287939305125 C28.336589169738055 5.918921933525999, 28.213530205261225 6.289555927746871, 28.06575922997033 6.734618561215495 M28.06575922997033 6.734618561215495 C27.905902315257627 7.129468231179065, 27.746045400544922 7.524317901142636, 27.596671148808344 7.893275190886679 M28.06575922997033 6.734618561215495 C27.920405533416208 7.093645001926724, 27.775051836862083 7.4526714426379534, 27.596671148808344 7.893275190886679 M27.596671148808344 7.893275190886679 C27.404865396506196 8.29156393952774, 27.21305964420405 8.6898526881688, 27.054311474273504 9.019496659696284 M27.596671148808344 7.893275190886679 C27.433751996756225 8.231580296034325, 27.27083284470411 8.56988540118197, 27.054311474273504 9.019496659696284 M27.054311474273504 9.019496659696284 C26.864244534315297 9.356979757956758, 26.674177594357086 9.694462856217232, 26.44090887860425 10.108655082055236 M27.054311474273504 9.019496659696284 C26.848400807992228 9.385111898394621, 26.642490141710955 9.75072713709296, 26.44090887860425 10.108655082055236 M26.44090887860425 10.108655082055236 C26.25554635679385 10.393421692362525, 26.070183834983453 10.678188302669813, 25.75898396464064 11.156274872382301 M26.44090887860425 10.108655082055236 C26.289370596294965 10.34145857740876, 26.137832313985676 10.574262072762284, 25.75898396464064 11.156274872382301 M25.75898396464064 11.156274872382301 C25.468606739830303 11.545353899718767, 25.178229515019964 11.934432927055235, 25.011338908126582 12.158051136245302 M25.75898396464064 11.156274872382301 C25.572439486211664 11.406227478925537, 25.385895007782683 11.656180085468774, 25.011338908126582 12.158051136245302 M25.011338908126582 12.158051136245302 C24.729157545189583 12.489517421725516, 24.446976182252584 12.820983707205729, 24.20104594296866 13.10986736009567 M25.011338908126582 12.158051136245302 C24.846007654332542 12.35225863456663, 24.6806764005385 12.546466132887957, 24.20104594296866 13.10986736009567 M24.20104594296866 13.10986736009567 C23.975982914495983 13.34226341501199, 23.750919886023308 13.57465946992831, 23.33143473676799 14.007812326905684 M24.20104594296866 13.10986736009567 C23.964597928376644 13.35401934790495, 23.72814991378463 13.59817133571423, 23.33143473676799 14.007812326905684 M23.33143473676799 14.007812326905684 C23.068567610444425 14.24654129594971, 22.80570048412086 14.485270264993737, 22.406078708501887 14.848196188198111 M23.33143473676799 14.007812326905684 C23.11837763035627 14.201305153766677, 22.905320523944557 14.394797980627672, 22.406078708501887 14.848196188198111 M22.406078708501887 14.848196188198111 C22.18968980012325 15.020760584279387, 21.973300891744614 15.193324980360662, 21.428780344578715 15.627565626425152 M22.406078708501887 14.848196188198111 C22.150655893338577 15.05188908620428, 21.895233078175266 15.25558198421045, 21.428780344578715 15.627565626425152 M21.428780344578715 15.627565626425152 C21.06932257556464 15.878307805413344, 20.709864806550566 16.129049984401536, 20.403555573605708 16.34271804539089 M21.428780344578715 15.627565626425152 C21.099617570123495 15.857175328658265, 20.770454795668275 16.086785030891377, 20.403555573605708 16.34271804539089 M20.403555573605708 16.34271804539089 C20.03974756685979 16.56326059705342, 19.675939560113875 16.783803148715954, 19.334617264076787 16.990714730406093 M20.403555573605708 16.34271804539089 C20.052022237293794 16.55581961970236, 19.70048890098188 16.768921194013828, 19.334617264076787 16.990714730406093 M19.334617264076787 16.990714730406093 C18.930627411351242 17.20147597780516, 18.5266375586257 17.412237225204223, 18.226357912792388 17.56889292409717 M19.334617264076787 16.990714730406093 C19.085396189965273 17.120733205136354, 18.83617511585376 17.250751679866614, 18.226357912792388 17.56889292409717 M18.226357912792388 17.56889292409717 C17.776064940047032 17.768224265665093, 17.325771967301677 17.96755560723302, 17.083331595147804 18.07487676824742 M18.226357912792388 17.56889292409717 C17.809116690414896 17.75359323622258, 17.3918754680374 17.938293548347993, 17.083331595147804 18.07487676824742 M17.083331595147804 18.07487676824742 C16.823695552215632 18.17042523209573, 16.56405950928346 18.26597369594404, 15.910235251460616 18.506587066708033 M17.083331595147804 18.07487676824742 C16.81113135793896 18.175048971731684, 16.53893112073012 18.27522117521595, 15.910235251460616 18.506587066708033 M15.910235251460616 18.506587066708033 C15.592831628979077 18.60079079577494, 15.275428006497538 18.69499452484185, 14.711889386235413 18.86224982926107 M15.910235251460616 18.506587066708033 C15.519564284616942 18.622536158993483, 15.128893317773269 18.738485251278938, 14.711889386235413 18.86224982926107 M14.711889386235413 18.86224982926107 C14.413530032140258 18.93034840485655, 14.115170678045102 18.998446980452027, 13.493218259676766 19.140403561325773 M14.711889386235413 18.86224982926107 C14.445133286557049 18.923135168266427, 14.178377186878686 18.98402050727178, 13.493218259676766 19.140403561325773 M13.493218259676766 19.140403561325773 C13.213697582540732 19.1855942966899, 12.934176905404698 19.23078503205403, 12.259229652847878 19.3399052695533 M13.493218259676766 19.140403561325773 C13.01670103753492 19.217443170355416, 12.540183815393073 19.294482779385064, 12.259229652847878 19.3399052695533 M12.259229652847878 19.3399052695533 C11.799091538187756 19.384294240077512, 11.338953423527636 19.428683210601726, 11.0149942896239 19.45993515863156 M12.259229652847878 19.3399052695533 C11.97014048300027 19.367793354087905, 11.681051313152661 19.395681438622507, 11.0149942896239 19.45993515863156 M11.0149942896239 19.45993515863156 C10.52695411141928 19.475585657234003, 10.03891393321466 19.491236155836443, 9.765625000000004 19.5 M11.0149942896239 19.45993515863156 C10.69872818283105 19.470077197101773, 10.3824620760382 19.480219235571987, 9.765625000000004 19.5 M9.765625000000004 19.5 C9.765625000000002 19.5, 9.765625 19.5, 9.765625 19.5 M9.765625000000004 19.5 C9.765625000000004 19.5, 9.765625000000002 19.5, 9.765625 19.5 M9.765625 19.5 C3.10189558259679 19.5, -3.5618338348064196 19.5, -9.765624999999996 19.5 M9.765625 19.5 C3.713605034769741 19.5, -2.3384149304605177 19.5, -9.765624999999996 19.5 M-9.765624999999996 19.5 C-10.208157515923846 19.48580884355161, -10.650690031847695 19.471617687103222, -11.014994289623893 19.45993515863156 M-9.765624999999996 19.5 C-10.215289970605115 19.485580119612465, -10.664954941210235 19.471160239224925, -11.014994289623893 19.45993515863156 M-11.014994289623893 19.45993515863156 C-11.266110508854092 19.43571027897386, -11.51722672808429 19.411485399316163, -12.259229652847871 19.3399052695533 M-11.014994289623893 19.45993515863156 C-11.465037277499952 19.416520052847037, -11.91508026537601 19.373104947062515, -12.259229652847871 19.3399052695533 M-12.259229652847871 19.3399052695533 C-12.671694147753048 19.27322120872696, -13.084158642658224 19.206537147900622, -13.493218259676759 19.140403561325773 M-12.259229652847871 19.3399052695533 C-12.60321436783277 19.284292488475845, -12.947199082817667 19.228679707398392, -13.493218259676759 19.140403561325773 M-13.493218259676759 19.140403561325773 C-13.754948406254352 19.08066536331826, -14.016678552831944 19.02092716531075, -14.711889386235388 18.862249829261074 M-13.493218259676759 19.140403561325773 C-13.94723598599933 19.036776978035192, -14.401253712321902 18.933150394744615, -14.711889386235388 18.862249829261074 M-14.711889386235388 18.862249829261074 C-15.154393391134473 18.73091696335795, -15.596897396033556 18.59958409745482, -15.910235251460593 18.506587066708043 M-14.711889386235388 18.862249829261074 C-15.012101743214135 18.773148377556602, -15.312314100192882 18.68404692585213, -15.910235251460593 18.506587066708043 M-15.910235251460593 18.506587066708043 C-16.349489294694223 18.344937518378202, -16.78874333792785 18.18328797004836, -17.083331595147797 18.074876768247425 M-15.910235251460593 18.506587066708043 C-16.37198977356592 18.33665713416127, -16.833744295671252 18.1667272016145, -17.083331595147797 18.074876768247425 M-17.083331595147797 18.074876768247425 C-17.39661909635077 17.936193684808398, -17.709906597553736 17.797510601369375, -18.22635791279238 17.568892924097174 M-17.083331595147797 18.074876768247425 C-17.50864515247351 17.886603072897746, -17.933958709799217 17.698329377548067, -18.22635791279238 17.568892924097174 M-18.22635791279238 17.568892924097174 C-18.64219985325704 17.351948450116236, -19.058041793721703 17.135003976135298, -19.33461726407678 16.990714730406097 M-18.22635791279238 17.568892924097174 C-18.472041102991227 17.44072016113803, -18.71772429319007 17.312547398178886, -19.33461726407678 16.990714730406097 M-19.33461726407678 16.990714730406097 C-19.72904212048116 16.75161206455602, -20.123466976885542 16.512509398705948, -20.403555573605686 16.3427180453909 M-19.33461726407678 16.990714730406097 C-19.756154581351463 16.73517633144594, -20.177691898626147 16.47963793248578, -20.403555573605686 16.3427180453909 M-20.403555573605686 16.3427180453909 C-20.733740410957648 16.11239539632541, -21.06392524830961 15.882072747259924, -21.428780344578712 15.627565626425156 M-20.403555573605686 16.3427180453909 C-20.79638504179435 16.06869721369609, -21.189214509983014 15.79467638200128, -21.428780344578712 15.627565626425156 M-21.428780344578712 15.627565626425156 C-21.804912981695182 15.32760985763461, -22.18104561881165 15.027654088844063, -22.40607870850187 14.848196188198125 M-21.428780344578712 15.627565626425156 C-21.6765671664931 15.429962229832686, -21.92435398840749 15.232358833240218, -22.40607870850187 14.848196188198125 M-22.40607870850187 14.848196188198125 C-22.62957801738185 14.645220029340994, -22.85307732626183 14.44224387048386, -23.331434736767974 14.007812326905697 M-22.40607870850187 14.848196188198125 C-22.701216824987807 14.580159559732243, -22.996354941473744 14.31212293126636, -23.331434736767974 14.007812326905697 M-23.331434736767974 14.007812326905697 C-23.597511442179513 13.733066283264503, -23.863588147591052 13.458320239623308, -24.201045942968655 13.109867360095677 M-23.331434736767974 14.007812326905697 C-23.62744922411727 13.70215306547616, -23.923463711466564 13.396493804046624, -24.201045942968655 13.109867360095677 M-24.201045942968655 13.109867360095677 C-24.51521497112861 12.740826542894865, -24.829383999288563 12.371785725694055, -25.01133890812658 12.158051136245307 M-24.201045942968655 13.109867360095677 C-24.405751677471077 12.869408356262863, -24.6104574119735 12.62894935243005, -25.01133890812658 12.158051136245307 M-25.01133890812658 12.158051136245307 C-25.186156637085652 11.923811305662888, -25.36097436604473 11.68957147508047, -25.758983964640635 11.156274872382316 M-25.01133890812658 12.158051136245307 C-25.283020864303236 11.794022065703967, -25.55470282047989 11.429992995162626, -25.758983964640635 11.156274872382316 M-25.758983964640635 11.156274872382316 C-25.907037339094163 10.928825131324025, -26.055090713547692 10.701375390265733, -26.440908878604244 10.108655082055249 M-25.758983964640635 11.156274872382316 C-25.923056913790496 10.904214762732332, -26.087129862940362 10.652154653082349, -26.440908878604244 10.108655082055249 M-26.440908878604244 10.108655082055249 C-26.668322572859168 9.704859039772, -26.895736267114096 9.301062997488751, -27.0543114742735 9.019496659696289 M-26.440908878604244 10.108655082055249 C-26.580078891944673 9.861544630877331, -26.7192489052851 9.614434179699414, -27.0543114742735 9.019496659696289 M-27.0543114742735 9.019496659696289 C-27.20039302809783 8.716155187535534, -27.346474581922163 8.412813715374778, -27.59667114880834 7.893275190886686 M-27.0543114742735 9.019496659696289 C-27.218298367523047 8.678974367106182, -27.382285260772594 8.338452074516077, -27.59667114880834 7.893275190886686 M-27.59667114880834 7.893275190886686 C-27.77711727256999 7.447569776506951, -27.957563396331633 7.001864362127216, -28.065759229970325 6.73461856121551 M-27.59667114880834 7.893275190886686 C-27.72785847797178 7.569239951518533, -27.859045807135214 7.24520471215038, -28.065759229970325 6.73461856121551 M-28.065759229970325 6.73461856121551 C-28.145119904668576 6.495596853430745, -28.224480579366826 6.2565751456459795, -28.45964813421488 5.5482879393051325 M-28.065759229970325 6.73461856121551 C-28.176756527435494 6.4003123862680935, -28.287753824900665 6.066006211320678, -28.45964813421488 5.5482879393051325 M-28.45964813421488 5.5482879393051325 C-28.54300075560623 5.230428268685285, -28.62635337699758 4.912568598065437, -28.776719287545557 4.339158212148136 M-28.45964813421488 5.5482879393051325 C-28.526332026397675 5.293993357430444, -28.59301591858047 5.039698775555756, -28.776719287545557 4.339158212148136 M-28.776719287545557 4.339158212148136 C-28.830521894169745 4.062893198317866, -28.884324500793934 3.7866281844875957, -29.015669776581777 3.112197953150904 M-28.776719287545557 4.339158212148136 C-28.869373690113534 3.8633974374764968, -28.96202809268151 3.3876366628048573, -29.015669776581777 3.112197953150904 M-29.015669776581777 3.112197953150904 C-29.05009955245002 2.8451674104450526, -29.084529328318265 2.578136867739201, -29.175517702509364 1.872449005199809 M-29.015669776581777 3.112197953150904 C-29.071210572530635 2.681434507542266, -29.12675136847949 2.250671061933628, -29.175517702509364 1.872449005199809 M-29.175517702509364 1.872449005199809 C-29.203178392271855 1.4416114348420888, -29.230839082034347 1.0107738644843685, -29.255606215913414 0.6250057626472781 M-29.175517702509364 1.872449005199809 C-29.204215957132863 1.4254505246246287, -29.23291421175636 0.9784520440494486, -29.255606215913414 0.6250057626472781 M-29.255606215913414 0.6250057626472781 C-29.255606215913414 0.1685331611231896, -29.255606215913414 -0.2879394404008989, -29.255606215913414 -0.6250057626472687 M-29.255606215913414 0.6250057626472781 C-29.255606215913414 0.34925102959909593, -29.255606215913414 0.07349629655091372, -29.255606215913414 -0.6250057626472687 M-29.255606215913414 -0.6250057626472687 C-29.230324273055967 -1.0187924298690034, -29.205042330198516 -1.412579097090738, -29.175517702509367 -1.8724490051997822 M-29.255606215913414 -0.6250057626472687 C-29.22538120017068 -1.0957847800339509, -29.195156184427944 -1.5665637974206328, -29.175517702509367 -1.8724490051997822 M-29.175517702509367 -1.8724490051997822 C-29.126435467108205 -2.253121130587522, -29.077353231707047 -2.6337932559752613, -29.015669776581777 -3.112197953150895 M-29.175517702509367 -1.8724490051997822 C-29.117054144411984 -2.325880816867708, -29.058590586314605 -2.7793126285356338, -29.015669776581777 -3.112197953150895 M-29.015669776581777 -3.112197953150895 C-28.927388944269826 -3.565501368912257, -28.83910811195787 -4.018804784673619, -28.77671928754556 -4.339158212148126 M-29.015669776581777 -3.112197953150895 C-28.936752360451663 -3.5174222057772266, -28.85783494432155 -3.922646458403558, -28.77671928754556 -4.339158212148126 M-28.77671928754556 -4.339158212148126 C-28.6691334177126 -4.749429761832146, -28.561547547879638 -5.159701311516166, -28.459648134214884 -5.548287939305123 M-28.77671928754556 -4.339158212148126 C-28.674484630673394 -4.72902326758227, -28.572249973801227 -5.118888323016414, -28.459648134214884 -5.548287939305123 M-28.459648134214884 -5.548287939305123 C-28.322071700038887 -5.962646239215218, -28.184495265862886 -6.377004539125313, -28.065759229970332 -6.734618561215485 M-28.459648134214884 -5.548287939305123 C-28.32974746799384 -5.939528049102431, -28.1998468017728 -6.330768158899739, -28.065759229970332 -6.734618561215485 M-28.065759229970332 -6.734618561215485 C-27.967462939720445 -6.977412298562195, -27.869166649470557 -7.220206035908904, -27.596671148808344 -7.893275190886676 M-28.065759229970332 -6.734618561215485 C-27.892952515004165 -7.161454488172469, -27.720145800037997 -7.588290415129453, -27.596671148808344 -7.893275190886676 M-27.596671148808344 -7.893275190886676 C-27.466764259614088 -8.163029625860704, -27.33685737041983 -8.432784060834733, -27.054311474273504 -9.019496659696282 M-27.596671148808344 -7.893275190886676 C-27.433945233707984 -8.23117903536939, -27.27121931860762 -8.569082879852104, -27.054311474273504 -9.019496659696282 M-27.054311474273504 -9.019496659696282 C-26.866952560459957 -9.352171383319524, -26.679593646646413 -9.684846106942768, -26.440908878604247 -10.108655082055243 M-27.054311474273504 -9.019496659696282 C-26.819593124103513 -9.436262858233352, -26.584874773933517 -9.853029056770424, -26.440908878604247 -10.108655082055243 M-26.440908878604247 -10.108655082055243 C-26.216952045920863 -10.452712917887009, -25.992995213237478 -10.796770753718777, -25.75898396464064 -11.156274872382308 M-26.440908878604247 -10.108655082055243 C-26.264118228585012 -10.38025299542144, -26.087327578565773 -10.651850908787637, -25.75898396464064 -11.156274872382308 M-25.75898396464064 -11.156274872382308 C-25.567931155986948 -11.412268230709332, -25.37687834733325 -11.668261589036357, -25.011338908126586 -12.158051136245302 M-25.75898396464064 -11.156274872382308 C-25.577001741557687 -11.400114472391882, -25.395019518474736 -11.643954072401455, -25.011338908126586 -12.158051136245302 M-25.011338908126586 -12.158051136245302 C-24.763148026877136 -12.44959026782212, -24.514957145627687 -12.741129399398938, -24.201045942968662 -13.10986736009567 M-25.011338908126586 -12.158051136245302 C-24.814500863071455 -12.389268304369116, -24.61766281801632 -12.62048547249293, -24.201045942968662 -13.10986736009567 M-24.201045942968662 -13.10986736009567 C-23.945041070012746 -13.374213409813613, -23.689036197056826 -13.638559459531557, -23.331434736767996 -14.007812326905677 M-24.201045942968662 -13.10986736009567 C-23.889036973172583 -13.432042237822941, -23.577028003376505 -13.754217115550212, -23.331434736767996 -14.007812326905677 M-23.331434736767996 -14.007812326905677 C-23.076304627336746 -14.23951474191835, -22.8211745179055 -14.471217156931022, -22.406078708501887 -14.848196188198107 M-23.331434736767996 -14.007812326905677 C-23.005781296380615 -14.303562165147623, -22.680127855993234 -14.59931200338957, -22.406078708501887 -14.848196188198107 M-22.406078708501887 -14.848196188198107 C-22.112416996654535 -15.082383588730025, -21.818755284807185 -15.31657098926194, -21.42878034457872 -15.627565626425149 M-22.406078708501887 -14.848196188198107 C-22.172091192069484 -15.034795005883634, -21.938103675637084 -15.221393823569159, -21.42878034457872 -15.627565626425149 M-21.42878034457872 -15.627565626425149 C-21.174322035956568 -15.805064727197317, -20.919863727334416 -15.982563827969487, -20.40355557360571 -16.342718045390885 M-21.42878034457872 -15.627565626425149 C-21.095375251591292 -15.86013458641932, -20.761970158603862 -16.092703546413492, -20.40355557360571 -16.342718045390885 M-20.40355557360571 -16.342718045390885 C-20.142286375732017 -16.501100968530153, -19.88101717785832 -16.659483891669417, -19.33461726407679 -16.99071473040609 M-20.40355557360571 -16.342718045390885 C-20.157258100457824 -16.492025021017746, -19.910960627309937 -16.641331996644606, -19.33461726407679 -16.99071473040609 M-19.33461726407679 -16.99071473040609 C-18.921222133003944 -17.206382705494576, -18.507827001931098 -17.422050680583062, -18.226357912792388 -17.56889292409717 M-19.33461726407679 -16.99071473040609 C-19.031793987892485 -17.148697439623877, -18.728970711708175 -17.306680148841664, -18.226357912792388 -17.56889292409717 M-18.226357912792388 -17.56889292409717 C-17.904414403129145 -17.71140776571019, -17.582470893465903 -17.85392260732321, -17.083331595147804 -18.07487676824742 M-18.226357912792388 -17.56889292409717 C-17.83451804881926 -17.742348808361495, -17.442678184846134 -17.915804692625816, -17.083331595147804 -18.07487676824742 M-17.083331595147804 -18.07487676824742 C-16.7029480777073 -18.214861418892216, -16.322564560266798 -18.35484606953701, -15.910235251460618 -18.506587066708033 M-17.083331595147804 -18.07487676824742 C-16.662369844642836 -18.229794583761013, -16.241408094137867 -18.384712399274605, -15.910235251460618 -18.506587066708033 M-15.910235251460618 -18.506587066708033 C-15.501657639448455 -18.627850757285593, -15.093080027436294 -18.749114447863153, -14.711889386235413 -18.862249829261067 M-15.910235251460618 -18.506587066708033 C-15.460761258767677 -18.639988588402165, -15.011287266074737 -18.773390110096297, -14.711889386235413 -18.862249829261067 M-14.711889386235413 -18.862249829261067 C-14.317248195795111 -18.952324105704626, -13.92260700535481 -19.042398382148185, -13.493218259676768 -19.140403561325773 M-14.711889386235413 -18.862249829261067 C-14.282997684426208 -18.960141561419103, -13.854105982617003 -19.058033293577143, -13.493218259676768 -19.140403561325773 M-13.493218259676768 -19.140403561325773 C-13.122339410415268 -19.20036437746594, -12.751460561153769 -19.260325193606107, -12.25922965284788 -19.3399052695533 M-13.493218259676768 -19.140403561325773 C-13.086759443216538 -19.206116670635865, -12.680300626756308 -19.271829779945957, -12.25922965284788 -19.3399052695533 M-12.25922965284788 -19.3399052695533 C-11.842385316531718 -19.380117741349057, -11.425540980215558 -19.420330213144815, -11.014994289623903 -19.45993515863156 M-12.25922965284788 -19.3399052695533 C-11.825040727231894 -19.381790953018893, -11.390851801615907 -19.423676636484483, -11.014994289623903 -19.45993515863156 M-11.014994289623903 -19.45993515863156 C-10.671392354400087 -19.47095380391359, -10.327790419176269 -19.481972449195627, -9.765625000000005 -19.5 M-11.014994289623903 -19.45993515863156 C-10.638698322302291 -19.472002237887896, -10.262402354980678 -19.484069317144233, -9.765625000000005 -19.5 M-9.765625000000005 -19.5 C-9.765625000000004 -19.5, -9.765625000000004 -19.5, -9.765625 -19.5 M-9.765625000000005 -19.5 C-9.765625000000004 -19.5, -9.765625000000002 -19.5, -9.765625 -19.5" stroke="#9370DB" stroke-width="1.3" fill="none" stroke-dasharray="0 0" style=""/></g><g class="label" style="" transform="translate(-16.890625, -12)"><rect/><foreignObject width="33.78125" height="24"><div xmlns="http://www.w3.org/1999/xhtml" style="display: table-cell; white-space: nowrap; line-height: 1.5; max-width: 200px; text-align: center;"><span class="nodeLabel"><p>User</p></span></div></foreignObject></g></g><g class="node default compute" id="flowchart-CF-1" transform="translate(501.1791801452637, 274)"><rect class="basic label-container" style="fill:#ED7100 !important;stroke:#232F3E !important" x="-108.25" y="-39" width="216.5" height="78"/><g class="label" style="color:white !important" transform="translate(-78.25, -24)"><rect/><foreignObject width="156.5" height="48"><div style="color: white !important; display: table-cell; white-space: nowrap; line-height: 1.5; max-width: 200px; text-align: center;" xmlns="http://www.w3.org/1999/xhtml"><span style="color:white !important" class="nodeLabel"><p>CloudFront<br />url.tommykeyapp.com</p></span></div></foreignObject></g></g><g class="node default storage" id="flowchart-S3-2" transform="translate(558.9448051452637, 476)"><rect class="basic label-container" style="fill:#3F8624 !important;stroke:#232F3E !important" x="-83.8046875" y="-39" width="167.609375" height="78"/><g class="label" style="color:white !important" transform="translate(-53.8046875, -24)"><rect/><foreignObject width="107.609375" height="48"><div style="color: white !important; display: table-cell; white-space: nowrap; line-height: 1.5; max-width: 200px; text-align: center;" xmlns="http://www.w3.org/1999/xhtml"><span style="color:white !important" class="nodeLabel"><p>S3<br />SvelteKit Static</p></span></div></foreignObject></g></g><g class="node default compute" id="flowchart-APIGW-3" transform="translate(348.4526176452637, 476)"><rect class="basic label-container" style="fill:#ED7100 !important;stroke:#232F3E !important" x="-76.6875" y="-39" width="153.375" height="78"/><g class="label" style="color:white !important" transform="translate(-46.6875, -24)"><rect/><foreignObject width="93.375" height="48"><div style="color: white !important; display: table-cell; white-space: nowrap; line-height: 1.5; max-width: 200px; text-align: center;" xmlns="http://www.w3.org/1999/xhtml"><span style="color:white !important" class="nodeLabel"><p>API Gateway<br />HTTP API</p></span></div></foreignObject></g></g><g class="node default compute" id="flowchart-Lambda-4" transform="translate(348.4526176452637, 628)"><rect class="basic label-container" style="fill:#ED7100 !important;stroke:#232F3E !important" x="-58.9140625" y="-39" width="117.828125" height="78"/><g class="label" style="color:white !important" transform="translate(-28.9140625, -24)"><rect/><foreignObject width="57.828125" height="48"><div style="color: white !important; display: table-cell; white-space: nowrap; line-height: 1.5; max-width: 200px; text-align: center;" xmlns="http://www.w3.org/1999/xhtml"><span style="color:white !important" class="nodeLabel"><p>Lambda<br />Go API</p></span></div></foreignObject></g></g><g class="node default storage" id="flowchart-DDB-5" transform="translate(1015.2846488952637, 838.8672828674316)"><path d="M0,10.911524373062834 a48.40625,10.911524373062834 0,0,0 96.8125,0 a48.40625,10.911524373062834 0,0,0 -96.8125,0 l0,73.91152437306283 a48.40625,10.911524373062834 0,0,0 96.8125,0 l0,-73.91152437306283" class="basic label-container" style="fill:#3F8624 !important;stroke:#232F3E !important" transform="translate(-48.40625, -47.86728655959425)"/><g class="label" style="color:white !important" transform="translate(-40.90625, -14)"><rect/><foreignObject width="81.8125" height="48"><div style="color: white !important; display: table-cell; white-space: nowrap; line-height: 1.5; max-width: 200px; text-align: center;" xmlns="http://www.w3.org/1999/xhtml"><span style="color:white !important" class="nodeLabel"><p>DynamoDB<br />URL Table</p></span></div></foreignObject></g></g><g class="node default network" id="flowchart-R53-6" transform="translate(453.6987113952637, 72)"><rect class="basic label-container" style="fill:#8C4FFF !important;stroke:#232F3E !important" x="-62.46875" y="-39" width="124.9375" height="78"/><g class="label" style="color:white !important" transform="translate(-32.46875, -24)"><rect/><foreignObject width="64.9375" height="48"><div style="color: white !important; display: table-cell; white-space: nowrap; line-height: 1.5; max-width: 200px; text-align: center;" xmlns="http://www.w3.org/1999/xhtml"><span style="color:white !important" class="nodeLabel"><p>Route 53<br />DNS</p></span></div></foreignObject></g></g><g class="node default security" id="flowchart-ACM-7" transform="translate(656.7104301452637, 72)"><rect class="basic label-container" style="fill:#DD344C !important;stroke:#232F3E !important" x="-83.0625" y="-39" width="166.125" height="78"/><g class="label" style="color:white !important" transform="translate(-53.0625, -24)"><rect/><foreignObject width="106.125" height="48"><div style="color: white !important; display: table-cell; white-space: nowrap; line-height: 1.5; max-width: 200px; text-align: center;" xmlns="http://www.w3.org/1999/xhtml"><span style="color:white !important" class="nodeLabel"><p>ACM<br />SSL Certificate</p></span></div></foreignObject></g></g><g class="node default security" id="flowchart-GSB-8" transform="translate(329.4096488952637, 838.8672828674316)"><rect class="basic label-container" style="fill:#DD344C !important;stroke:#232F3E !important" x="-109.6015625" y="-39" width="219.203125" height="78"/><g class="label" style="color:white !important" transform="translate(-79.6015625, -24)"><rect/><foreignObject width="159.203125" height="48"><div style="color: white !important; display: table-cell; white-space: nowrap; line-height: 1.5; max-width: 200px; text-align: center;" xmlns="http://www.w3.org/1999/xhtml"><span style="color:white !important" class="nodeLabel"><p>Google Safe Browsing<br />API</p></span></div></foreignObject></g></g><g class="node default ai" id="flowchart-Groq-9" transform="translate(794.2729301452637, 838.8672828674316)"><rect class="basic label-container" style="fill:#1A73E8 !important;stroke:#232F3E !important" x="-65.125" y="-39" width="130.25" height="78"/><g class="label" style="color:white !important" transform="translate(-35.125, -24)"><rect/><foreignObject width="70.25" height="48"><div style="color: white !important; display: table-cell; white-space: nowrap; line-height: 1.5; max-width: 200px; text-align: center;" xmlns="http://www.w3.org/1999/xhtml"><span style="color:white !important" class="nodeLabel"><p>Groq API<br />Gemma 2</p></span></div></foreignObject></g></g><g class="node default compute" id="flowchart-EB-10" transform="translate(886.0385551452637, 476)"><rect class="basic label-container" style="fill:#ED7100 !important;stroke:#232F3E !important" x="-83.3671875" y="-39" width="166.734375" height="78"/><g class="label" style="color:white !important" transform="translate(-53.3671875, -24)"><rect/><foreignObject width="106.734375" height="48"><div style="color: white !important; display: table-cell; white-space: nowrap; line-height: 1.5; max-width: 200px; text-align: center;" xmlns="http://www.w3.org/1999/xhtml"><span style="color:white !important" class="nodeLabel"><p>EventBridge<br />Daily Schedule</p></span></div></foreignObject></g></g><g class="node default compute" id="flowchart-MonLambda-11" transform="translate(886.0385551452637, 628)"><rect class="basic label-container" style="fill:#ED7100 !important;stroke:#232F3E !important" x="-74.609375" y="-39" width="149.21875" height="78"/><g class="label" style="color:white !important" transform="translate(-44.609375, -24)"><rect/><foreignObject width="89.21875" height="48"><div style="color: white !important; display: table-cell; white-space: nowrap; line-height: 1.5; max-width: 200px; text-align: center;" xmlns="http://www.w3.org/1999/xhtml"><span style="color:white !important" class="nodeLabel"><p>Lambda<br />URL Monitor</p></span></div></foreignObject></g></g></g></g></g></svg>